<svg width="28" height="28" viewBox="0 0 28 28" fill="none" xmlns="http://www.w3.org/2000/svg">
<path d="M14 19.25C13.7762 19.25 13.5522 19.1645 13.3814 18.9936L6.38138 11.9936C6.03947 11.6517 6.03947 11.0981 6.38138 10.7564C6.72328 10.4147 7.27694 10.4145 7.61862 10.7564L14 17.1378L20.3814 10.7564C20.7233 10.4145 21.2769 10.4145 21.6186 10.7564C21.9603 11.0983 21.9605 11.6519 21.6186 11.9936L14.6186 18.9936C14.4478 19.1645 14.2238 19.25 14 19.25ZM28 14C28 6.28053 21.7195 0 14 0C6.28053 0 0 6.28053 0 14C0 21.7195 6.28053 28 14 28C21.7195 28 28 21.7195 28 14ZM26.25 14C26.25 20.7548 20.7548 26.25 14 26.25C7.24522 26.25 1.75 20.7548 1.75 14C1.75 7.24522 7.24522 1.75 14 1.75C20.7548 1.75 26.25 7.24522 26.25 14Z" fill="#08699F"/>
</svg>
