<svg width="99" height="75" viewBox="0 0 99 75" fill="none" xmlns="http://www.w3.org/2000/svg">
<path d="M97.1387 52.4369C97.1387 37.2971 81.4372 32.3095 77.4997 32.3095C75.6499 32.3095 73.9836 30.4597 74.5713 28.4027C76.0165 23.3446 89.3375 14.4574 92.153 12.2861C96.1619 9.19441 96.9104 5.75708 95.1851 3.59872C93.4599 1.44037 88.7258 -0.796715 71.1514 13.2628C51.6161 28.8911 51.2308 46.088 53.197 54.2867C55.5202 63.9738 64.4171 72.949 77.1133 72.949C85.9059 72.949 97.1387 66.7122 97.1387 52.4369Z" fill="#F9FDFF" stroke="#08699F" stroke-width="3"/>
<path d="M46.3438 52.4369C46.3438 37.2971 30.6423 32.3095 26.7048 32.3095C24.8549 32.3095 23.1887 30.4597 23.7764 28.4027C25.2216 23.3446 38.5426 14.4574 41.3581 12.2861C45.367 9.19441 46.1154 5.75708 44.3902 3.59872C42.665 1.44037 37.9309 -0.796715 20.3564 13.2628C0.821152 28.8911 0.435837 46.088 2.4021 54.2867C4.72533 63.9738 13.6222 72.949 26.3184 72.949C35.111 72.949 46.3438 66.7122 46.3438 52.4369Z" fill="#F9FDFF" stroke="#08699F" stroke-width="3"/>
</svg>
