<?xml version="1.0" encoding="UTF-8"?> <svg xmlns="http://www.w3.org/2000/svg" width="1273" height="274" viewBox="0 0 1273 274" fill="none"><path d="M754.023 157.367C754.023 156.069 755.08 155.017 756.384 155.017H1146.62C1147.92 155.017 1148.98 156.069 1148.98 157.367V157.367C1148.98 158.665 1147.92 159.717 1146.62 159.717H756.384C755.08 159.717 754.023 158.665 754.023 157.367V157.367Z" fill="url(#paint0_linear_142_685)"></path><path d="M797.39 52.785H802.537V116.844H797.39V87.2851H759.063V116.844H753.916V52.785H759.063V82.6179H797.39V52.785Z" fill="white"></path><path d="M836.008 52.785H876.909V57.5436H841.155V81.8859H868.269V86.6445H841.155V112.085H876.909V116.844H836.008V52.785Z" fill="white"></path><path d="M930.773 51.7783L955.865 116.844H950.35L942.262 95.5212H913.494L905.406 116.844H899.983L925.075 51.7783H930.773ZM928.108 57.8181H927.74L915.24 90.8541H940.608L928.108 57.8181Z" fill="white"></path><path d="M982.151 116.844V52.785H987.298V112.085H1019.38V116.844H982.151Z" fill="white"></path><path d="M1027.28 52.785H1073.7V57.5436H1053.11V116.844H1047.96V57.5436H1027.28V52.785Z" fill="white"></path><path d="M1143.85 52.785H1149V116.844H1143.85V87.2851H1105.53V116.844H1100.38V52.785H1105.53V82.6179H1143.85V52.785Z" fill="white"></path><path d="M693.03 154.562C685.236 162.322 672.6 162.322 664.806 154.562L551.906 42.1536C544.112 34.3934 544.112 21.8116 551.906 14.0514V14.0514C559.7 6.2912 572.337 6.2912 580.131 14.0514L693.03 126.46C700.824 134.22 700.824 146.802 693.03 154.562V154.562Z" fill="url(#paint1_linear_142_685)"></path><path d="M551.749 154.949C543.955 147.188 543.955 134.607 551.749 126.846L664.648 14.4377C672.442 6.6775 685.079 6.67749 692.873 14.4377V14.4377C700.667 22.1979 700.667 34.7797 692.873 42.5399L579.974 154.949C572.18 162.709 559.543 162.709 551.749 154.949V154.949Z" fill="url(#paint2_linear_142_685)"></path><path d="M83.6005 114.919C83.6005 121.586 80.8801 127.212 75.5439 131.691C70.1031 136.275 62.7789 138.463 53.5713 138.463C48.549 138.463 43.7359 137.942 39.2368 136.692C34.7376 135.442 31.1802 134.087 28.4598 132.629C25.7393 131.17 23.1235 129.399 20.8217 127.42C18.5198 125.441 16.9503 124.086 16.3225 123.253C15.6947 122.42 15.1716 121.795 14.9623 121.378L0 136.275L2.09263 138.88C3.34821 140.442 5.54547 142.317 8.47515 144.609C11.4048 146.901 14.8577 149.193 18.8337 151.485C22.8097 153.777 27.832 155.652 34.0052 157.319C40.1785 158.986 46.6656 159.819 53.5713 159.819C70.3123 159.819 83.3913 155.652 92.9127 147.318C102.33 138.984 107.143 128.149 107.143 115.023C107.143 107.522 105.678 101.063 102.748 95.6462C99.8184 90.229 95.947 86.0619 91.3432 83.1449C86.7395 80.228 81.6125 77.7277 75.9624 75.6442C70.3123 73.5607 64.6622 71.8938 59.0121 70.4353C53.362 68.9769 48.1305 67.4142 43.5267 65.6432C38.9229 63.8722 35.1562 61.372 32.2265 58.2467C29.2968 55.1213 27.832 51.2668 27.832 46.683C27.832 41.5783 30.1339 37.0987 34.8423 33.2442C39.5507 29.4938 45.8286 27.5145 53.5713 27.5145C57.338 27.5145 61.0001 28.0354 64.453 28.8688C67.9058 29.8064 70.7308 30.8481 72.8235 31.9941C74.9161 33.14 76.9041 34.3901 78.7875 35.8486C80.6708 37.3071 81.8218 38.3489 82.3449 38.9739C82.8681 39.599 83.2866 40.1199 83.6005 40.3282L98.5628 25.3268L96.8887 23.2432C95.6331 21.9931 93.7498 20.4304 91.2386 18.5553C88.7275 16.6801 85.6931 14.9091 82.3449 13.0339C78.9967 11.1587 74.7068 9.59604 69.5799 8.24174C64.453 6.88744 59.1168 6.1582 53.5713 6.1582C38.3997 6.1582 26.3671 10.1169 17.5781 17.826C8.68441 25.5351 4.28989 35.2236 4.28989 46.683C4.28989 54.2879 5.75473 60.7469 8.68441 66.1641C11.6141 71.5813 15.3808 75.6442 19.9846 78.5611C24.5884 81.4781 29.82 83.9783 35.4701 86.0619C41.1202 88.1454 46.7703 89.9164 52.4203 91.3749C58.0704 92.8334 63.1974 94.396 67.8012 96.167C72.405 97.938 76.2763 100.334 79.206 103.459C82.1357 106.585 83.6005 110.335 83.6005 114.919Z" fill="white"></path><path d="M146.727 55.2255H125.277V157.631H146.727V55.2255ZM148.924 23.2432C148.924 19.597 147.668 16.5759 145.262 14.1798C142.751 11.6796 139.716 10.5336 136.054 10.5336C132.288 10.5336 129.253 11.6796 126.847 14.1798C124.336 16.5759 123.185 19.597 123.185 23.2432C123.185 26.9936 124.336 30.0147 126.847 32.4108C129.253 34.911 132.288 36.057 136.054 36.057C139.716 36.057 142.751 34.911 145.262 32.4108C147.668 30.0147 148.924 26.9936 148.924 23.2432Z" fill="white"></path><path d="M177.836 8.24174V157.631H201.378V104.293H237.79C252.019 104.293 264.052 99.7091 273.678 90.3331C283.304 81.0614 288.222 69.7061 288.222 56.3715C288.222 43.0368 283.304 31.6815 273.678 22.3056C264.052 12.9297 252.019 8.34592 237.79 8.34592L177.836 8.24174ZM237.79 29.7022C245.114 29.7022 251.496 32.2024 256.728 37.4113C261.959 42.5159 264.575 48.8707 264.575 56.3715C264.575 63.8722 261.959 70.227 256.728 75.3317C251.496 80.4363 245.114 82.9366 237.79 82.9366H201.378V29.598L237.79 29.7022Z" fill="white"></path><path d="M330.945 8.24174H309.6V157.631H330.945V102.209C330.945 92.8334 333.352 85.4368 338.165 80.228C342.978 75.0191 349.569 72.3105 357.731 72.3105C364.741 72.3105 370.6 74.8108 375.309 79.6029C380.017 84.4992 382.424 90.6457 382.424 98.0422V157.736H403.873V98.0422C403.873 84.2909 400.002 73.4565 392.259 65.3307C384.516 57.2049 374.367 53.142 362.021 53.142C358.463 53.142 354.906 53.5587 351.453 54.4963C347.895 55.4339 345.07 56.4756 342.768 57.6216C340.466 58.7675 338.269 60.0177 336.281 61.4761C334.293 62.9346 332.933 63.9764 332.305 64.6014C331.677 65.2265 331.154 65.6432 330.945 65.9557V8.24174Z" fill="white"></path><path d="M505.608 106.481C505.608 116.065 502.365 124.086 496.087 130.65C489.704 137.317 482.171 140.546 473.487 140.546C464.698 140.546 457.164 137.317 450.782 130.65C444.399 124.086 441.26 116.065 441.26 106.481C441.26 96.8963 444.399 88.8747 450.782 82.2073C457.164 75.6442 464.698 72.3105 473.487 72.3105C482.171 72.3105 489.704 75.6442 496.087 82.2073C502.365 88.8747 505.608 96.8963 505.608 106.481ZM419.915 106.481C419.915 120.857 425.147 133.254 435.819 143.88C446.492 154.506 459.047 159.819 473.487 159.819C487.926 159.819 500.377 154.506 511.049 143.88C521.722 133.254 527.058 120.857 527.058 106.481C527.058 92.1041 521.722 79.6029 511.049 68.9769C500.377 58.3508 487.926 53.0378 473.487 53.0378C459.047 53.0378 446.492 58.3508 435.819 68.9769C425.147 79.6029 419.915 92.1041 419.915 106.481Z" fill="white"></path><path d="M1118.82 137.374C1117.97 139.255 1118.31 141.136 1117.62 143.017C1117.11 144.898 1116.94 146.779 1116.77 148.66C1116.6 149.173 1116.43 149.686 1116.08 150.199C1115.57 151.225 1115.91 152.08 1116.77 152.764C1116.94 152.935 1117.11 153.106 1117.28 153.106C1117.28 153.106 1117.45 152.764 1117.62 152.764C1117.79 151.225 1117.79 149.686 1118.82 148.318C1118.82 146.437 1120.36 144.727 1120.19 142.846C1121.56 140.965 1121.21 138.742 1122.24 136.861C1122.41 134.296 1123.44 132.073 1124.12 129.679C1124.46 128.311 1124.63 126.943 1124.98 126.259V125.062C1124.81 124.891 1124.81 124.72 1124.81 124.549C1124.63 123.694 1124.29 123.181 1123.44 122.839C1123.1 122.668 1121.9 123.352 1121.73 124.036C1121.21 125.575 1120.53 127.285 1120.36 128.995C1120.19 131.902 1118.65 134.467 1118.82 137.374ZM1158.49 173.968C1158.49 172.429 1156.95 171.061 1155.41 170.89C1154.73 170.89 1153.88 170.89 1153.36 171.574C1152.17 173.455 1150.46 174.652 1148.57 175.678C1146.01 176.875 1144.13 178.756 1142.59 180.979C1142.42 181.15 1142.42 181.321 1142.42 181.321C1142.76 181.492 1143.1 181.492 1143.44 181.492C1143.79 181.663 1144.13 181.834 1144.13 182.176C1144.13 182.347 1143.96 182.518 1143.79 182.689C1139.17 185.938 1134.72 189.358 1130.79 193.462C1130.79 193.462 1130.62 193.633 1130.45 193.633C1130.11 193.633 1129.59 193.633 1129.42 193.462C1128.74 193.12 1128.23 193.12 1127.71 193.462C1126.69 194.317 1125.66 195.172 1124.29 195.685C1123.1 196.027 1122.58 197.566 1121.21 198.079C1120.19 198.421 1120.02 199.447 1119.33 200.302C1118.82 200.986 1118.14 201.67 1117.28 202.183C1116.77 202.354 1116.08 202.696 1115.91 203.209C1114.72 205.261 1112.84 206.629 1111.3 208.339C1109.76 209.878 1108.22 211.417 1107.19 213.298C1106.68 214.153 1105.65 215.008 1104.8 215.692C1104.8 215.863 1104.46 215.863 1104.46 215.863C1104.29 215.692 1104.11 215.521 1104.11 215.35C1103.94 214.324 1104.29 213.469 1104.63 212.443C1104.8 211.759 1104.8 210.904 1104.97 210.22C1105.14 209.194 1105.31 208.339 1105.65 207.313C1106.34 205.261 1106.17 203.209 1106.34 200.986C1106.68 198.763 1107.88 196.711 1108.22 194.317C1108.56 192.949 1108.22 191.239 1109.07 189.871C1109.93 188.332 1109.76 186.451 1110.27 184.741C1110.95 183.031 1111.13 181.15 1110.78 179.269L1110.1 179.782C1108.56 183.544 1108.22 187.648 1106.51 191.41C1106.34 191.752 1106.34 192.265 1106.34 192.607C1106.34 194.146 1106 195.685 1105.48 197.053C1104.8 198.934 1104.8 200.815 1104.11 202.696C1104.11 205.261 1103.26 207.655 1102.75 210.049C1102.06 213.469 1101.04 216.718 1100.18 220.138C1100.18 220.309 1100.01 220.48 1099.84 220.651C1099.67 220.309 1099.5 219.967 1099.5 219.625C1099.33 218.941 1099.16 218.257 1099.33 217.915C1100.18 216.034 1100.18 213.982 1100.87 212.272C1101.38 210.733 1101.55 209.365 1101.72 207.826C1101.72 206.971 1101.89 206.287 1101.72 205.432C1101.55 203.893 1102.06 202.354 1102.58 200.986C1103.43 198.934 1104.11 197.053 1103.94 194.83C1103.77 194.317 1104.11 193.633 1104.29 193.12C1104.63 192.436 1104.97 191.752 1104.97 190.897C1105.14 187.477 1106 184.057 1107.02 180.808C1107.88 178.072 1108.73 175.165 1108.73 172.258C1108.73 171.745 1108.73 171.061 1108.9 170.548C1109.93 168.838 1109.93 166.786 1109.93 164.905C1109.93 164.392 1109.93 163.708 1110.1 163.195C1110.78 161.827 1110.95 160.117 1110.95 158.578C1110.95 157.381 1111.13 156.355 1111.64 155.329C1111.81 154.987 1111.81 154.132 1111.47 153.619C1111.13 152.764 1111.98 151.909 1111.47 150.883C1111.13 150.37 1111.98 149.857 1111.98 149.344C1112.15 147.292 1113.18 145.753 1113.35 143.701C1113.52 141.82 1114.37 140.11 1115.06 138.229C1115.23 137.716 1115.4 137.032 1115.4 136.519C1115.74 134.125 1116.6 132.073 1117.45 129.85C1117.97 128.482 1118.48 126.943 1118.82 125.575C1118.82 125.404 1118.82 125.062 1118.65 125.062C1118.48 124.72 1118.14 124.549 1117.62 124.72C1117.28 124.891 1116.94 125.062 1116.77 125.404C1115.74 126.43 1114.89 127.798 1114.37 129.337C1113.52 132.415 1111.64 135.322 1111.81 138.742C1111.81 138.913 1111.64 139.084 1111.64 139.255C1111.3 140.794 1110.95 142.333 1110.44 143.701C1109.76 145.411 1109.93 147.292 1109.59 148.831C1109.24 150.37 1108.56 151.738 1108.56 153.277C1108.56 153.79 1108.39 154.132 1108.22 154.474C1107.71 155.671 1107.02 156.868 1106.51 158.065C1106 159.433 1106.17 160.801 1105.48 161.998C1105.31 163.708 1104.29 165.247 1104.11 166.957C1103.77 168.838 1103.26 170.719 1102.92 172.6C1102.4 174.652 1101.89 176.704 1101.21 178.756C1100.87 179.782 1100.52 180.979 1100.35 182.176C1100.35 183.373 1100.01 184.399 1099.5 185.425C1098.64 187.306 1097.96 189.358 1098.13 191.581C1098.13 192.607 1097.96 193.462 1097.45 194.488C1097.27 195.172 1096.93 195.856 1096.93 196.711C1096.93 198.25 1096.42 199.618 1096.08 201.157C1095.74 202.696 1095.91 204.235 1095.74 205.774C1095.74 206.458 1095.74 206.971 1095.39 207.484C1094.88 208.852 1094.54 210.049 1094.71 211.417C1094.88 213.127 1093.68 214.324 1093.68 215.863C1093.51 218.086 1093 220.138 1092.66 222.19C1092.14 224.242 1092.32 226.465 1092.14 228.517C1092.14 229.543 1092.32 230.569 1091.97 231.424C1091.12 234.844 1091.46 238.435 1091.29 241.855C1091.29 244.078 1092.49 245.446 1094.2 246.643C1094.54 246.814 1095.56 246.643 1095.91 246.472C1096.25 245.959 1096.76 245.617 1097.1 245.104C1097.62 244.42 1098.3 244.249 1098.98 244.249C1100.18 244.42 1100.87 244.078 1101.55 243.223C1103.6 239.803 1106.51 236.896 1107.53 232.792C1107.71 232.45 1107.88 231.937 1108.05 231.766C1109.59 230.227 1110.27 228.175 1111.3 226.294C1112.66 223.558 1114.37 220.822 1116.26 218.428C1117.79 216.376 1119.33 214.324 1120.53 212.101C1121.73 209.707 1123.44 207.655 1125.49 205.774C1126.17 204.919 1127.2 204.235 1127.71 203.209C1128.74 201.157 1130.28 199.789 1131.65 198.079C1134.38 194.317 1137.97 191.41 1141.39 188.332C1142.08 187.648 1142.93 187.306 1143.79 186.793C1143.96 186.793 1144.13 186.793 1144.3 186.964C1144.47 186.964 1144.47 187.306 1144.47 187.477C1144.64 188.332 1143.96 188.845 1143.62 189.529C1142.59 192.265 1142.25 195.001 1141.39 197.908C1139.85 202.183 1138.49 206.629 1137.63 211.246C1137.46 211.93 1137.12 212.614 1136.95 213.469C1136.26 215.692 1135.07 218.086 1135.24 220.651C1135.24 220.993 1134.89 221.335 1134.89 221.848C1133.87 225.097 1133.01 228.517 1133.01 231.937C1133.01 233.134 1133.01 234.331 1132.67 235.357C1132.33 236.383 1132.33 237.238 1132.67 238.093L1133.18 246.814C1133.18 247.669 1132.84 248.524 1133.18 249.208C1134.38 251.26 1134.21 253.654 1134.38 255.877C1134.38 256.732 1134.55 257.416 1134.89 258.271C1135.07 258.955 1135.41 259.639 1135.41 260.494C1135.24 262.204 1136.09 263.743 1136.6 265.453C1137.29 267.847 1138.31 270.241 1139.34 272.464C1139.85 273.319 1141.39 273.661 1142.42 273.319C1143.44 272.977 1144.13 272.293 1144.47 271.267C1144.81 270.07 1144.98 268.702 1145.15 267.334C1145.33 266.821 1144.98 266.308 1144.81 265.624C1144.47 264.427 1143.62 263.23 1143.44 261.862C1143.27 259.981 1142.76 258.1 1142.42 256.219C1142.25 254.167 1141.22 252.115 1141.91 249.892C1141.22 248.353 1141.22 246.643 1141.05 244.933C1141.05 244.078 1140.71 243.394 1140.37 242.71C1140.37 242.197 1140.2 241.855 1140.37 241.513C1141.05 239.632 1140.71 237.58 1141.39 235.87C1142.08 233.647 1142.25 231.253 1142.25 229.03C1142.25 228.004 1142.42 226.978 1142.76 226.123C1143.1 224.755 1143.27 223.558 1143.44 222.19C1143.44 221.164 1143.62 220.138 1143.96 219.283C1144.47 218.086 1144.64 216.718 1144.81 215.35C1144.81 214.495 1144.98 213.469 1145.33 212.614C1146.52 209.023 1147.21 205.432 1148.23 202.012C1149.43 198.079 1150.28 194.146 1152.34 190.555C1154.05 187.477 1155.41 184.228 1156.95 181.15C1158.15 178.927 1158.66 176.533 1158.49 173.968ZM1111.3 178.927C1112.15 177.901 1112.66 176.704 1113.01 175.507C1113.18 175.165 1113.01 174.652 1113.01 174.31C1113.01 174.139 1112.84 173.968 1112.66 173.968C1112.66 173.797 1112.49 173.968 1112.32 173.968C1111.3 175.507 1110.78 177.046 1110.95 179.098C1111.13 179.098 1111.3 179.098 1111.3 178.927ZM1110.95 179.098H1110.78V179.269H1110.95V179.098ZM1142.25 181.663C1142.25 181.492 1142.42 181.492 1142.42 181.492V181.321H1142.25V181.663ZM1141.73 182.347C1142.08 182.176 1142.25 182.005 1142.25 181.663C1141.91 181.663 1141.73 181.834 1141.56 182.005L1141.73 182.347ZM1130.62 240.316C1130.62 238.264 1130.79 236.383 1130.79 234.331C1130.79 231.082 1130.79 227.833 1130.62 224.584C1130.62 224.413 1130.28 224.071 1130.11 223.9C1129.94 224.071 1129.76 224.071 1129.76 224.242C1129.42 225.61 1129.59 226.978 1128.74 228.175C1128.57 228.517 1128.4 228.859 1128.57 229.372C1128.74 231.595 1128.23 233.989 1128.23 236.212C1128.23 240.316 1129.42 244.249 1129.76 248.182C1129.94 248.353 1129.94 248.695 1130.11 248.695C1130.96 249.892 1130.62 251.431 1130.96 252.628C1130.96 252.799 1131.13 252.97 1131.3 253.141C1131.47 252.799 1131.65 252.628 1131.65 252.286C1131.65 250.576 1132.16 248.695 1131.47 247.156C1130.45 244.933 1130.62 242.539 1130.62 240.316ZM1131.99 256.903C1132.16 257.245 1132.33 257.416 1132.33 257.758C1132.5 257.758 1132.67 257.587 1132.67 257.416V256.903C1132.67 256.732 1132.5 256.561 1132.33 256.39C1132.33 256.561 1131.99 256.732 1131.99 256.903Z" fill="white"></path><path d="M1201.97 183.373C1201.63 182.86 1201.12 182.86 1200.61 183.373C1200.26 183.544 1199.75 184.057 1199.07 184.399C1198.38 185.083 1197.53 185.083 1196.67 184.57C1195.99 184.228 1195.65 184.399 1194.96 184.912C1193.6 186.793 1192.23 189.529 1191.37 191.752C1191.03 193.975 1190 195.685 1188.64 197.566C1185.56 201.841 1182.65 206.287 1180.09 210.733C1177.69 215.35 1174.27 219.454 1171.19 223.729C1169.83 225.61 1167.6 226.807 1165.72 228.175C1165.04 228.517 1163.67 228.175 1163.16 227.491C1162.64 227.32 1162.47 226.636 1162.47 225.952C1162.82 222.019 1161.62 217.915 1163.5 213.811C1163.67 213.469 1163.67 213.127 1163.67 212.443C1163.5 209.707 1164.7 206.8 1165.38 204.406L1165.72 204.235C1166.24 204.406 1166.41 204.577 1166.41 204.748C1166.58 206.116 1166.58 207.142 1165.72 208.681C1165.38 209.878 1165.72 211.417 1165.21 212.614C1164.87 213.469 1165.04 213.982 1164.87 214.666C1164.87 216.889 1165.04 218.599 1163.84 220.48C1163.84 221.677 1163.84 223.045 1164.01 224.413C1164.01 224.584 1164.01 224.926 1164.35 224.926C1164.53 225.097 1164.87 224.926 1164.87 224.413C1165.21 222.361 1166.75 219.967 1166.41 218.086C1166.41 217.231 1166.41 216.889 1166.75 216.205C1167.43 214.153 1167.43 212.443 1167.95 210.904C1168.8 206.629 1169.31 202.525 1170.85 198.592C1171.37 196.882 1171.88 194.83 1172.39 193.291C1172.9 192.778 1172.56 192.265 1172.56 191.41C1172.56 191.239 1172.39 191.239 1172.22 191.239C1172.22 190.897 1171.88 190.897 1171.88 191.239C1170.85 191.41 1170.51 192.265 1170.34 192.778C1170.34 193.12 1170 193.291 1169.83 193.462C1169.48 193.462 1169.31 193.291 1169.14 192.607C1168.97 191.752 1168.97 190.555 1168.46 189.7C1167.95 189.016 1166.58 188.845 1166.24 189.7C1165.72 189.7 1165.21 190.042 1165.04 190.384C1163.67 193.291 1161.96 196.027 1161.11 199.105C1160.25 201.841 1158.88 204.748 1158.54 207.313C1158.37 211.93 1156.66 215.863 1157 220.48C1157 220.822 1156.66 221.164 1156.49 221.335C1155.98 222.874 1155.98 224.242 1156.32 225.439C1156.66 226.465 1157.17 227.32 1157.17 228.688C1157 230.911 1158.03 232.792 1159.74 234.331C1160.76 235.186 1161.79 236.212 1163.16 235.186C1165.38 235.186 1167.43 234.673 1169.14 232.963C1169.83 232.45 1170.68 232.45 1171.88 232.45C1172.39 232.45 1173.59 232.108 1174.1 231.766C1176.32 229.885 1178.55 227.32 1180.94 225.268C1181.28 224.413 1181.45 223.216 1182.31 222.703C1182.65 222.703 1182.82 222.532 1182.99 222.703C1183.16 222.703 1183.34 222.874 1183.34 222.874C1183.34 225.952 1183.68 229.03 1182.31 231.937V234.502C1182.31 236.383 1182.31 238.777 1182.31 240.658H1182.14C1182.14 242.881 1182.31 244.933 1182.31 246.985C1182.31 249.721 1183.34 251.773 1184.19 253.825C1185.22 255.535 1186.76 256.219 1187.61 257.245C1189.15 258.271 1189.15 258.271 1191.37 256.732C1191.89 256.561 1192.23 256.39 1192.91 256.732C1192.91 257.245 1193.6 257.416 1193.77 257.587C1193.94 257.758 1194.28 257.758 1194.45 257.929C1194.96 258.271 1195.99 258.271 1195.99 257.929C1196.16 257.587 1196.16 257.074 1196.16 256.561C1194.45 253.312 1192.91 250.063 1192.23 246.301C1190.35 241.684 1191.71 236.554 1191.37 231.937C1192.57 230.056 1192.57 227.491 1192.91 225.61C1192.91 224.584 1192.91 223.729 1193.25 223.045C1194.45 221.164 1193.6 219.112 1194.62 217.231V216.889C1194.45 215.692 1194.45 214.666 1194.79 213.64C1195.99 210.733 1195.99 207.826 1197.53 205.603C1197.53 205.09 1197.7 204.748 1197.7 204.406C1197.7 202.867 1198.38 201.328 1198.73 199.789C1199.75 195.514 1200.95 191.239 1203 186.622C1203.51 185.425 1203 184.228 1201.97 183.373ZM1168.12 197.737C1168.12 197.737 1168.12 197.737 1167.95 197.737L1168.29 197.224C1168.29 197.395 1168.12 197.566 1168.12 197.737ZM1189.32 219.796C1189.15 219.796 1188.98 219.796 1188.98 219.454C1188.98 219.112 1189.15 218.599 1189.32 218.257C1189.66 218.77 1189.66 219.283 1190 219.454C1190 219.625 1189.66 219.796 1189.32 219.796ZM1187.61 223.045C1187.61 222.703 1188.29 222.532 1188.47 222.703C1188.47 222.874 1188.64 222.874 1188.64 223.045V226.978C1188.64 227.149 1188.47 228.004 1188.47 228.859H1187.78C1187.78 228.859 1187.61 228.688 1187.61 228.517C1187.27 226.636 1187.27 224.926 1187.61 223.045ZM1188.81 237.409C1188.81 237.409 1188.64 236.554 1188.29 236.041C1187.95 236.212 1187.95 234.673 1187.95 234.502C1187.44 234.16 1187.61 232.963 1187.61 231.082C1187.61 230.74 1187.95 229.714 1188.12 229.885L1188.47 231.253C1188.64 232.621 1188.81 232.792 1188.98 234.502L1188.81 237.409Z" fill="white"></path><path d="M1267.23 186.28C1267.06 186.109 1266.89 185.938 1266.72 185.938C1266.38 185.767 1266.04 185.425 1265.69 185.425C1264.15 185.083 1262.62 184.741 1261.08 185.254C1260.56 185.425 1260.05 185.767 1259.37 185.767C1256.63 185.767 1254.07 186.964 1251.67 187.99C1250.47 188.503 1249.11 189.016 1247.91 189.7C1245.69 190.726 1243.46 191.752 1241.41 193.462L1235.77 198.421C1231.66 201.67 1228.42 205.774 1225.17 209.878C1224.14 211.246 1223.46 212.956 1222.09 213.982C1220.55 215.008 1220.21 216.889 1218.67 217.915C1218.5 218.086 1218.33 218.086 1218.16 218.086C1217.81 218.086 1217.47 217.915 1217.64 217.402C1217.64 216.547 1217.81 215.521 1218.16 214.666C1218.84 212.956 1219.18 211.246 1219.18 209.536C1219.52 205.945 1220.55 202.696 1221.75 199.447C1222.09 198.421 1222.6 197.224 1222.6 196.198C1222.94 193.462 1223.63 190.726 1223.63 187.99C1223.63 187.306 1223.8 186.451 1224.14 185.767C1225.34 183.544 1225 180.808 1226.36 178.585C1226.71 178.243 1226.71 177.559 1226.71 176.875C1227.05 174.31 1227.22 171.574 1228.42 169.009C1228.59 168.496 1228.59 167.983 1228.59 167.299L1229.61 160.459C1229.61 159.604 1229.78 158.749 1230.13 158.236C1230.81 156.526 1230.98 154.816 1231.32 153.106C1231.49 151.909 1232.18 150.883 1232.01 149.857C1232.01 148.489 1232.35 147.634 1232.69 146.437C1233.37 142.846 1234.06 139.255 1233.55 135.493C1233.55 135.151 1233.2 134.809 1232.86 134.809C1232.35 134.638 1232.01 134.809 1231.84 135.151C1231.49 135.493 1231.32 135.835 1231.15 136.006C1229.78 137.545 1228.76 139.084 1228.76 141.136C1228.76 141.991 1228.42 142.675 1228.07 143.359C1227.56 144.385 1227.22 145.582 1227.05 146.608C1226.53 149.344 1225.34 151.738 1225.17 154.474C1225.17 154.987 1224.82 155.671 1224.48 156.184C1223.46 158.236 1223.63 160.63 1222.43 162.682C1222.26 164.05 1222.09 165.418 1221.75 166.786C1221.58 168.838 1221.58 171.061 1220.38 172.942C1220.04 173.455 1220.04 174.31 1219.87 175.165C1219.69 177.046 1219.52 178.927 1218.5 180.808C1218.33 181.15 1218.16 181.834 1218.16 182.347C1217.98 184.741 1217.98 187.135 1216.62 189.187C1216.45 190.555 1216.1 192.094 1215.93 193.633C1215.76 194.146 1215.42 194.317 1215.25 194.146C1215.08 194.146 1215.08 193.975 1215.08 193.804C1215.08 193.291 1214.91 192.949 1215.08 192.607C1215.59 188.503 1215.08 184.399 1217.13 180.637C1217.47 180.295 1217.3 179.611 1217.47 178.927C1217.64 178.243 1217.64 177.388 1218.16 176.704C1218.67 175.678 1218.84 174.652 1219.01 173.455L1219.52 167.641C1219.69 166.957 1219.87 166.102 1220.21 165.418C1220.72 164.392 1221.06 163.366 1221.06 162.169C1221.06 160.63 1221.23 159.091 1222.09 157.723C1221.92 155.329 1223.46 153.277 1223.29 150.883C1223.11 149.857 1223.63 148.66 1224.14 147.634C1224.31 147.292 1224.48 146.95 1224.48 146.608C1224.31 146.266 1224.14 145.753 1223.97 145.582C1223.46 145.411 1223.11 145.582 1222.94 145.924C1222.77 146.437 1222.43 146.95 1222.43 147.634C1222.43 150.37 1221.06 152.764 1220.21 155.329C1219.87 156.013 1219.35 156.697 1219.35 157.381C1219.01 159.775 1218.5 161.998 1217.64 164.05C1217.13 165.076 1217.13 166.444 1216.96 167.47C1216.62 168.667 1216.1 169.693 1215.76 170.719C1215.25 172.429 1214.74 174.139 1214.74 175.849C1214.56 177.901 1213.54 179.44 1213.03 181.321C1212.85 181.834 1213.2 182.347 1212.85 183.031C1212 184.912 1212.51 187.306 1211.14 189.187C1210.97 189.358 1211.14 189.871 1211.14 190.213C1211.49 191.239 1211.32 192.094 1210.97 192.949C1210.29 193.975 1210.12 195.172 1209.78 196.369C1209.78 197.053 1209.61 197.908 1209.43 198.592C1208.75 199.618 1208.58 200.644 1208.58 201.841C1208.24 204.919 1207.72 207.997 1207.38 211.075C1207.21 211.93 1207.21 212.614 1206.87 213.298C1205.84 215.521 1205.67 217.915 1205.5 220.138C1205.5 221.677 1205.33 223.216 1204.48 224.584C1204.3 224.926 1204.3 225.439 1204.13 225.781C1203.62 228.175 1204.3 230.74 1203.62 233.134C1203.45 233.476 1203.45 233.989 1203.62 234.331C1204.13 235.528 1203.79 236.554 1203.28 237.58C1203.11 238.606 1203.11 239.632 1202.94 240.487C1202.94 241.171 1203.45 241.684 1203.96 241.513C1206.01 241.171 1206.01 241.171 1206.7 242.368L1207.21 243.394C1207.9 244.591 1209.26 244.591 1210.29 243.907C1210.8 243.565 1211.14 243.223 1211.49 242.71C1213.54 239.461 1215.76 236.212 1217.64 232.963C1218.84 230.74 1220.38 229.714 1222.77 230.398C1223.11 230.569 1223.63 230.569 1223.97 230.398C1226.88 229.885 1229.78 230.056 1232.69 230.227C1234.23 230.398 1235.77 230.056 1237.14 229.714C1240.21 228.859 1243.12 228.175 1246.2 227.833C1248.94 227.491 1251.5 226.636 1253.72 224.755C1255.95 223.045 1258.34 221.506 1260.73 219.796C1261.76 218.941 1262.79 217.915 1263.47 216.718C1264.33 215.521 1265.01 214.153 1265.86 212.785C1267.23 211.075 1268.26 209.194 1268.6 208.168C1270.14 204.577 1271.34 202.012 1271.68 199.105C1272.53 191.923 1272.19 191.41 1267.23 186.28ZM1225.68 141.307V141.649L1225.85 141.478L1225.68 141.307ZM1224.31 143.53V144.043L1224.65 143.701L1224.31 143.53ZM1265.18 195.343C1265.18 195.172 1264.67 195.343 1264.5 195.172C1264.15 195.001 1263.98 194.83 1263.81 194.83C1263.3 194.317 1263.3 194.146 1263.81 193.804C1263.98 193.804 1264.5 193.975 1265.35 193.975C1265.86 193.975 1265.86 193.633 1265.86 194.146C1266.04 194.488 1265.52 195.001 1265.18 195.343ZM1262.62 196.882C1262.44 197.737 1262.1 198.763 1261.76 199.789C1260.05 204.064 1257.66 207.826 1255.09 211.417C1254.58 212.272 1253.89 212.956 1253.04 213.469C1251.5 214.495 1249.62 215.179 1248.25 216.547C1248.08 216.889 1247.57 217.06 1247.23 217.231C1245.17 217.402 1243.29 218.77 1241.07 218.428C1237.48 219.283 1233.72 218.599 1230.13 219.454C1229.78 219.625 1229.44 219.454 1228.93 219.283C1228.42 219.283 1227.9 218.599 1228.24 218.086C1231.66 212.956 1235.6 208.168 1240.73 204.577C1241.92 203.893 1242.95 203.038 1243.98 202.012C1245.86 200.131 1248.59 199.276 1250.65 197.566C1253.55 196.198 1256.46 194.659 1259.71 193.975H1260.91C1261.59 193.975 1262.44 194.83 1262.62 195.343V196.882ZM1213.88 197.566L1214.22 196.198L1214.56 197.053L1213.88 197.566ZM1265.01 197.566C1264.84 197.737 1263.98 197.737 1263.98 198.421L1263.3 197.737C1263.13 197.908 1262.96 197.395 1263.3 197.395C1263.98 196.882 1264.5 197.224 1265.35 196.882C1265.18 197.395 1265.18 197.395 1265.01 197.566ZM1213.71 204.064C1212.85 205.774 1212.51 207.655 1212.34 209.536C1212.17 211.417 1212 213.469 1210.8 215.008C1210.46 215.692 1210.46 216.547 1210.46 217.402C1210.29 219.454 1210.46 221.506 1208.92 223.387C1208.58 223.729 1208.58 224.413 1208.58 225.097C1208.41 226.465 1208.24 227.833 1208.24 229.201C1208.24 230.569 1207.04 231.937 1207.38 233.476C1207.38 233.989 1206.87 234.502 1206.53 235.015C1206.36 235.528 1206.01 235.699 1205.84 235.528C1205.67 235.357 1205.67 235.186 1205.67 235.015V233.476C1205.67 232.963 1205.67 232.108 1206.01 231.424C1207.38 228.859 1207.55 225.952 1207.9 223.045C1207.9 221.677 1208.07 220.48 1208.92 219.283C1209.26 218.428 1209.43 217.402 1209.61 216.376C1209.78 215.008 1209.95 213.811 1210.63 212.443C1210.8 212.101 1210.8 211.417 1210.97 210.904C1211.14 209.878 1211.14 208.852 1211.32 207.997C1211.32 205.261 1212.34 202.696 1213.54 200.302C1213.54 200.131 1213.71 200.131 1213.88 199.96C1213.88 200.131 1214.05 200.302 1214.05 200.473C1214.05 201.67 1214.22 202.867 1213.71 204.064ZM1245.86 223.045C1245.69 223.216 1244.83 223.216 1244.66 223.9C1244.66 223.9 1244.49 223.558 1244.15 223.387C1243.98 223.387 1243.81 223.045 1244.15 223.045C1244.66 222.532 1245.34 222.703 1245.86 222.361V223.045ZM1241.07 224.584C1240.9 224.413 1240.56 224.584 1240.39 224.584C1239.87 224.584 1239.87 224.242 1239.53 224.413C1239.02 223.9 1239.19 223.558 1239.53 223.216C1239.7 223.387 1240.21 223.216 1241.07 223.216C1241.58 223.216 1241.75 223.045 1241.75 223.387C1241.75 223.729 1241.41 224.242 1241.07 224.584ZM1236.62 224.584C1236.62 224.926 1236.28 225.097 1236.11 225.268C1235.08 225.781 1233.89 226.123 1233.37 225.781C1233.03 225.781 1232.86 225.781 1232.69 225.439C1232.69 225.268 1232.86 225.097 1233.2 224.926C1234.06 224.584 1235.6 224.413 1236.45 224.071C1236.62 223.9 1236.79 224.071 1237.14 224.071L1236.62 224.584ZM1230.81 226.123C1230.3 226.636 1229.78 226.465 1229.44 225.952C1229.78 225.61 1229.78 225.439 1230.47 225.268C1230.64 224.926 1230.98 225.097 1231.15 225.439C1230.81 225.781 1230.81 225.781 1230.81 226.123ZM1225 228.004C1224.14 227.833 1223.29 228.346 1222.6 228.175C1222.26 228.346 1222.26 228.175 1221.92 227.833C1222.43 227.149 1223.46 226.465 1225 226.123C1226.02 225.781 1227.22 225.781 1228.24 225.439C1228.59 225.439 1228.59 225.781 1229.27 225.952C1227.9 226.978 1226.53 227.662 1225 228.004Z" fill="white"></path><defs><linearGradient id="paint0_linear_142_685" x1="846.185" y1="155.017" x2="1038.89" y2="155.017" gradientUnits="userSpaceOnUse"><stop offset="0.0885417" stop-color="#079E8E"></stop><stop offset="0.692708" stop-color="#4AC6C1"></stop></linearGradient><linearGradient id="paint1_linear_142_685" x1="622.615" y1="138.105" x2="622.615" y2="30.8008" gradientUnits="userSpaceOnUse"><stop stop-color="#F1D537"></stop><stop offset="1" stop-color="#F66B37"></stop></linearGradient><linearGradient id="paint2_linear_142_685" x1="570.567" y1="108.11" x2="639.122" y2="39.2557" gradientUnits="userSpaceOnUse"><stop offset="0.0885417" stop-color="#079E8E"></stop><stop offset="0.692708" stop-color="#4AC6C1"></stop></linearGradient></defs></svg> 